<mxfile host="app.diagrams.net" modified="2024-03-22T18:09:59.240Z" agent="Mozilla/5.0 (X11; Linux x86_64) AppleWebKit/537.36 (KHTML, like Gecko) Chrome/123.0.0.0 Safari/537.36" version="24.0.8" etag="UTeBFGky8QVyzRMxp_Gn" type="github">
  <diagram name="PÃ¡gina-1" id="hF3qaIsYzBiZjMN2J-XN">
    <mxGraphModel>
      <root>
        <mxCell id="0" />
        <mxCell id="1" parent="0" />
      </root>
    </mxGraphModel>
  </diagram>
</mxfile>
